<svg width="1293" height="1148" viewBox="0 0 1293 1148" fill="none" xmlns="http://www.w3.org/2000/svg">
<path d="M183.63 905.727L167.407 288.573C322.137 219.068 492.09 219.908 638.577 285.765L654.8 902.92C517.274 848.749 330.341 860.367 183.63 905.727Z" fill="white" stroke="black"/>
<path d="M655.199 902.917L638.976 285.762C793.705 216.257 963.658 217.098 1110.15 282.955L1126.37 900.109C988.842 845.938 801.909 857.556 655.199 902.917Z" fill="white" stroke="black"/>
<path d="M184.053 906.498L199.522 915.707C258.989 891.331 423.186 844.938 650.415 903.72" stroke="black"/>
<path d="M1126.38 900.498L1111.4 909.888C1050.67 886.228 884.087 841.806 660.019 903.276" stroke="black"/>
<path d="M230.595 367.617C367.539 328.774 454.299 325.295 585.797 359.997" stroke="black"/>
<path d="M231.025 446.332C367.969 407.489 454.728 404.01 586.227 438.712" stroke="black"/>
<path d="M240.17 544.929C377.114 506.086 463.873 502.607 595.371 537.309" stroke="black"/>
<path d="M250.349 768.941C387.293 730.098 474.053 726.62 605.551 761.321" stroke="black"/>
</svg>
