<svg width="528" height="689" viewBox="0 0 528 689" fill="none" xmlns="http://www.w3.org/2000/svg">
<path d="M166.87 325.209C163.744 340.789 157.312 357.639 146.956 367.784C141.681 372.952 135.184 374.202 129.889 376.743C125.514 378.843 120.867 379.475 116.212 379.639C111.647 379.8 108.782 375.193 106.77 371.35C104.803 367.591 104.956 363.483 105.862 356.636C107.131 347.056 118.974 326.974 126.906 320.8C130.143 318.281 137.149 314.911 142.591 311.747C144.455 310.664 146.043 309.151 147.975 306.432C154.899 296.691 149.684 289.573 149.043 285.048C148.459 280.923 148.303 276.458 147.133 272.31C145.872 267.836 146.331 263.243 145.934 258.307C145.566 253.727 144.015 248.702 143.313 244.484C142.676 240.659 141.805 236.678 141.041 232.767C140.298 228.963 140.119 225.079 139.511 221.198C138.863 217.065 137.38 212.649 135.052 208.883C133.041 205.631 133.211 201.17 132.646 197.763C132.244 195.336 137.829 198.015 139.309 198.307C139.976 198.438 139.965 199.672 140.404 200.549C144.572 208.869 163.581 207.864 169.97 209.774C174.395 211.097 177.078 214.325 180.245 216.993C183.311 219.574 186.657 221.878 189.795 224.694C193.008 227.577 194.747 232.247 195.96 236.249C197.171 240.247 196.798 245.159 195.483 249.432C195.047 250.85 193.945 250.255 193.142 249.624C189.766 246.973 186.97 243.544 183.864 240.57C181.051 237.876 177.271 236.586 173.953 234.668C170.544 232.697 167.511 229.936 163.305 228.618C161.383 228.016 159.452 227.062 157.174 226.915C156.07 226.843 155.071 227.422 154.467 228.084C152.096 230.682 154.375 235.409 154.178 240.212C153.808 249.276 153.3 253.024 154.349 257.772C155.228 261.749 155.391 265.643 155.853 269.494C156.305 273.261 155.886 277.003 156.432 281.955C157.469 291.361 158.366 295.332 159.13 299.243C159.894 303.151 161.527 307.227 163.029 311.287C163.41 313.235 164.163 317.131 165.184 322.023C165.568 324.001 165.682 324.952 165.438 327.738" stroke="black" stroke-width="2" stroke-linecap="round"/>
<path d="M357.363 336.107C356.817 336.13 347.243 336.531 332.761 337.275C326.733 337.585 316.638 338.647 302.144 339.116C293.339 339.401 287.247 338.493 274.571 338.878C271.767 338.963 270.696 339.453 269.883 340.042C263.878 344.39 268.203 359.563 268.024 365.273C267.809 372.094 267.466 381.568 267.251 386.441C267.009 391.94 265.644 397.496 264.994 405.152C264.251 413.903 264.101 420.069 262.761 424.317C261.134 429.473 255.762 432.114 250.886 437.599C246.571 442.452 238.618 445.079 235.072 446.479C231.43 447.917 228.108 451.626 221.631 458.701C219.724 460.783 220.178 467.492 220.817 476.221C221.121 480.364 223.261 481.871 224.977 483.326C227.972 485.866 231.731 486.246 238.376 486.944C251.874 488.362 256.201 483.019 260.211 479.51C263.342 476.769 264.081 472.678 265.154 468.599C266.215 464.571 267.164 460.319 267.682 456.259C268.372 450.862 268.009 440.878 269.375 434.076C270.164 430.144 272.963 427.256 273.01 418.373C273.047 411.391 273.608 403.035 274.431 399.522C275.356 395.575 274.678 382.234 277.253 374.785C278.204 372.032 282.644 374.551 290.599 374.635C311.125 374.851 325.718 373.03 327.62 372.396C332.206 370.866 336.078 369.818 340.045 368.676C345.247 367.178 348.973 367.326 352.025 367.611C356.589 368.037 354.73 379.015 355.299 389.132C355.594 394.377 353.635 398.816 352.84 403.021C352.01 407.412 351.674 411.412 350.713 414.931C349.613 418.967 348.268 422.4 345.309 424.343C342.148 426.418 338.81 427.535 335.569 429.477C332 431.615 326.332 433.063 320.507 436.081C316.239 438.292 315.117 442.977 313.074 447.096C310.866 451.55 308.768 456.591 308.008 461.62C306.619 470.814 315.046 474.965 318.479 477.604C321.339 479.801 325.205 479.829 330.709 479.332C336.223 478.833 338.212 473.461 341.429 470.961C344.913 468.255 346.403 464.225 347.65 460.831C348.953 457.286 348.72 446.675 349.262 439.907C349.543 436.4 351.191 433.157 352.293 429.769C353.51 426.03 356.287 422.932 357.535 419.539C358.748 416.238 358.87 411.711 359.531 407.775C360.113 404.306 361.436 400.475 361.471 391.309C361.499 384.053 362.034 375.138 362.226 369.712C362.409 364.53 362.993 358.413 363.764 353.659C364.881 346.778 364.268 342.517 363.007 338.54C361.849 337.037 359.639 336.579 357.955 336.366C356.27 336.153 355.177 336.199 354.016 335.413" stroke="black" stroke-width="2" stroke-linecap="round"/>
<path d="M442.359 608.557C441.619 612.942 438.986 622.577 430.821 631.798C427.156 635.938 423.659 637.927 420.165 639.74C415.817 641.997 408.405 642.422 401.136 642.339C397.007 642.292 394.115 640.785 392.511 639.008C390.093 636.332 388.948 633.61 389.049 630.744C389.395 620.906 392.288 618.29 394.394 615.615C396.374 613.101 397.985 610.171 400.732 607.479C404.205 604.076 408.06 603.289 411.369 601.826C414.558 600.417 417.768 600.128 421.015 599.037C424.156 597.982 427.516 596.732 431.546 594.01C434.63 591.927 435.704 587.534 437.484 582.28C438.204 580.156 438.52 578.407 440.654 568.018C442.638 558.358 445.572 539.62 447.155 529.482C449.239 516.139 448.948 512.07 449.193 508.328C449.325 506.313 449.685 501.624 450.963 496.289C451.386 494.521 452.322 494.963 453.293 495.255C454.265 495.548 455.491 495.755 456.021 496.468C458.342 499.595 453.955 508.042 453.612 513.837C453.362 518.081 453.201 521.58 452.542 529.252C451.277 543.984 448.688 554.378 448.771 556.152C448.876 558.381 448.439 560.39 447.355 569.083C446.149 577.007 443.611 592.061 442.631 600.121C441.65 608.18 442.304 608.79 442.606 611.626" stroke="black" stroke-width="2" stroke-linecap="round"/>
<rect x="0.5" y="0.5" width="527" height="688" stroke="#FFF6BE"/>
</svg>
